<?xml version="1.0" standalone="no"?>
<!DOCTYPE svg PUBLIC "-//W3C//DTD SVG 20010904//EN"
 "http://www.w3.org/TR/2001/REC-SVG-20010904/DTD/svg10.dtd">
<svg version="1.0" xmlns="http://www.w3.org/2000/svg"
 width="1222.000000pt" height="1222.000000pt" viewBox="0 0 1222.000000 1222.000000"
 preserveAspectRatio="xMidYMid meet">
<metadata>
Created by potrace 1.11, written by Peter Selinger 2001-2013
</metadata>
<g transform="translate(0.000000,1222.000000) scale(0.100000,-0.100000)"
fill="#000000" stroke="none">
<path d="M32 8633 c4 -15 1468 -3536 1548 -3723 15 -36 123 -296 241 -578
l213 -512 505 2 505 3 143 370 c79 204 211 543 293 755 82 212 200 518 263
680 63 162 119 296 126 298 6 2 11 -1 11 -7 0 -6 69 -187 154 -403 85 -216
171 -436 191 -488 20 -52 84 -214 141 -360 58 -146 139 -353 181 -460 42 -107
93 -238 114 -290 l37 -95 505 -3 504 -2 198 472 c109 260 285 682 393 938 206
492 314 751 945 2260 217 520 415 993 440 1053 l46 107 -586 -2 -587 -3 -46
-120 c-44 -114 -376 -962 -557 -1425 -47 -118 -102 -260 -123 -315 -21 -55
-158 -406 -305 -780 -146 -374 -296 -758 -333 -852 -36 -95 -70 -169 -74 -165
-3 4 -37 88 -73 187 -37 99 -89 239 -115 310 -88 238 -176 477 -285 772 l-108
292 413 1028 c227 565 415 1036 418 1046 4 16 -24 17 -492 17 -273 0 -496 -2
-496 -4 0 -6 -467 -1351 -502 -1446 -8 -22 -11 -23 -19 -8 -5 9 -79 223 -165
475 -216 635 -300 880 -319 936 l-17 47 -494 0 c-272 0 -494 -2 -494 -5 0 -5
83 -212 275 -685 70 -172 181 -445 412 -1015 84 -209 152 -387 151 -396 -8
-44 -584 -1557 -590 -1551 -4 4 -53 124 -109 267 -56 143 -129 332 -164 420
-77 199 -303 778 -400 1025 -39 102 -140 358 -223 570 -82 212 -223 572 -313
800 -89 228 -176 451 -193 495 l-32 80 -578 3 c-548 2 -578 1 -574 -15z"/>
<path d="M9485 8619 c-253 -26 -539 -108 -750 -214 -589 -296 -884 -835 -814
-1487 45 -418 268 -772 636 -1010 61 -40 112 -76 113 -79 0 -3 -41 -30 -92
-60 -262 -155 -453 -405 -498 -653 -16 -84 -8 -265 15 -351 39 -151 159 -314
295 -401 33 -22 60 -42 60 -45 0 -4 -21 -14 -47 -24 -280 -105 -523 -304 -628
-515 -59 -119 -79 -216 -79 -375 1 -154 15 -228 74 -368 162 -389 618 -683
1260 -811 443 -89 1080 -85 1491 8 313 71 603 193 850 357 164 109 374 317
472 465 197 297 269 603 222 944 -30 225 -118 396 -284 553 -160 151 -392 257
-699 321 -261 55 -490 77 -1117 106 -527 25 -763 75 -864 185 -117 127 -60
315 131 439 26 17 34 17 135 2 224 -32 384 -40 559 -27 209 15 329 33 479 72
126 32 304 99 416 155 191 95 409 277 535 443 79 105 184 315 219 435 77 273
71 623 -15 882 -12 36 -20 68 -17 71 3 2 52 14 109 24 421 79 446 86 498 145
16 18 34 50 39 71 6 22 11 141 11 276 l0 237 -680 0 -680 0 -83 41 c-169 86
-463 165 -696 189 -119 12 -459 11 -576 -1z m575 -810 c60 -13 130 -37 190
-66 163 -78 282 -221 339 -405 43 -143 46 -347 6 -503 -48 -189 -181 -353
-355 -439 -130 -63 -225 -86 -392 -93 -313 -13 -528 55 -693 221 -47 47 -93
106 -112 141 -76 144 -110 326 -93 500 10 109 15 130 47 220 93 256 315 409
643 445 109 12 311 2 420 -21z m-825 -3683 c66 -8 255 -22 420 -31 592 -31
783 -50 964 -96 335 -85 467 -250 406 -507 -58 -247 -271 -404 -662 -486 -157
-33 -315 -46 -563 -46 -303 1 -493 25 -685 87 -244 79 -401 224 -435 402 -35
188 18 349 164 497 72 72 234 193 261 194 6 0 64 -7 130 -14z"/>
</g>
</svg>
